{"asset":{"version":"2.0","generator":"Unity 2023.2.20f1 glTFast 6.8.0"},"nodes":[{"name":"Object_2","mesh":0},{"name":"Object_3","mesh":1},{"name":"Object_4","mesh":2},{"name":"Object_5","mesh":3},{"name":"Object_6","mesh":4},{"name":"Object_7","mesh":5},{"name":"Object_8","mesh":6},{"name":"Object_9","mesh":7},{"name":"Object_10","mesh":8},{"name":"Object_11","mesh":9},{"name":"Object_12","mesh":10},{"name":"Object_13","mesh":11},{"name":"Object_14","mesh":12},{"name":"Object_15","mesh":13},{"name":"Object_16","mesh":14},{"name":"Object_17","mesh":15},{"name":"Object_18","mesh":16},{"name":"Object_19","mesh":17},{"name":"Object_20","mesh":18},{"name":"Schwarzmann_C.obj.cleaner.materialmerger.gles","children":[0,1,2,3,4,5,6,7,8,9,10,11,12,13,14,15,16,17,18]},{"name":"scene","children":[19],"rotation":[-0.5025792,-0.498808831,-0.4948313,0.503732],"scale":[0.193771258,0.193771243,0.193771243]}],"buffers":[{"uri":"GreeceTest.bin","byteLength":47948420}],"bufferViews":[{"buffer":0,"byteLength":576108,"target":34963},{"buffer":0,"byteLength":640440,"byteOffset":576108,"target":34963},{"buffer":0,"byteLength":612444,"byteOffset":1216548,"target":34963},{"buffer":0,"byteLength":541608,"byteOffset":1828992,"target":34963},{"buffer":0,"byteLength":547248,"byteOffset":2370600,"target":34963},{"buffer":0,"byteLength":648552,"byteOffset":2917848,"target":34963},{"buffer":0,"byteLength":588180,"byteOffset":3566400,"target":34963},{"buffer":0,"byteLength":609444,"byteOffset":4154580,"target":34963},{"buffer":0,"byteLength":474036,"byteOffset":4764024,"target":34963},{"buffer":0,"byteLength":602016,"byteOffset":5238060,"target":34963},{"buffer":0,"byteLength":612660,"byteOffset":5840076,"target":34963},{"buffer":0,"byteLength":605952,"byteOffset":6452736,"target":34963},{"buffer":0,"byteLength":640032,"byteOffset":7058688,"target":34963},{"buffer":0,"byteLength":559536,"byteOffset":7698720,"target":34963},{"buffer":0,"byteLength":605220,"byteOffset":8258256,"target":34963},{"buffer":0,"byteLength":620316,"byteOffset":8863476,"target":34963},{"buffer":0,"byteLength":627840,"byteOffset":9483792,"target":34963},{"buffer":0,"byteLength":375120,"byteOffset":10111632,"target":34963},{"buffer":0,"byteLength":46116,"byteOffset":10486752,"target":34963},{"buffer":0,"byteLength":1572768,"byteOffset":10532868,"byteStride":24,"target":34962},{"buffer":0,"byteLength":524256,"byteOffset":12105636,"byteStride":8,"target":34962},{"buffer":0,"byteLength":1572768,"byteOffset":12629892,"byteStride":24,"target":34962},{"buffer":0,"byteLength":524256,"byteOffset":14202660,"byteStride":8,"target":34962},{"buffer":0,"byteLength":1572768,"byteOffset":14726916,"byteStride":24,"target":34962},{"buffer":0,"byteLength":524256,"byteOffset":16299684,"byteStride":8,"target":34962},{"buffer":0,"byteLength":1572792,"byteOffset":16823940,"byteStride":24,"target":34962},{"buffer":0,"byteLength":524264,"byteOffset":18396732,"byteStride":8,"target":34962},{"buffer":0,"byteLength":1572768,"byteOffset":18920996,"byteStride":24,"target":34962},{"buffer":0,"byteLength":524256,"byteOffset":20493764,"byteStride":8,"target":34962},{"buffer":0,"byteLength":1572768,"byteOffset":21018020,"byteStride":24,"target":34962},{"buffer":0,"byteLength":524256,"byteOffset":22590788,"byteStride":8,"target":34962},{"buffer":0,"byteLength":1572768,"byteOffset":23115044,"byteStride":24,"target":34962},{"buffer":0,"byteLength":524256,"byteOffset":24687812,"byteStride":8,"target":34962},{"buffer":0,"byteLength":1572792,"byteOffset":25212068,"byteStride":24,"target":34962},{"buffer":0,"byteLength":524264,"byteOffset":26784860,"byteStride":8,"target":34962},{"buffer":0,"byteLength":1572792,"byteOffset":27309124,"byteStride":24,"target":34962},{"buffer":0,"byteLength":524264,"byteOffset":28881916,"byteStride":8,"target":34962},{"buffer":0,"byteLength":1572768,"byteOffset":29406180,"byteStride":24,"target":34962},{"buffer":0,"byteLength":524256,"byteOffset":30978948,"byteStride":8,"target":34962},{"buffer":0,"byteLength":1572816,"byteOffset":31503204,"byteStride":24,"target":34962},{"buffer":0,"byteLength":524272,"byteOffset":33076020,"byteStride":8,"target":34962},{"buffer":0,"byteLength":1572792,"byteOffset":33600292,"byteStride":24,"target":34962},{"buffer":0,"byteLength":524264,"byteOffset":35173084,"byteStride":8,"target":34962},{"buffer":0,"byteLength":1572768,"byteOffset":35697348,"byteStride":24,"target":34962},{"buffer":0,"byteLength":524256,"byteOffset":37270116,"byteStride":8,"target":34962},{"buffer":0,"byteLength":1572768,"byteOffset":37794372,"byteStride":24,"target":34962},{"buffer":0,"byteLength":524256,"byteOffset":39367140,"byteStride":8,"target":34962},{"buffer":0,"byteLength":1572768,"byteOffset":39891396,"byteStride":24,"target":34962},{"buffer":0,"byteLength":524256,"byteOffset":41464164,"byteStride":8,"target":34962},{"buffer":0,"byteLength":1572768,"byteOffset":41988420,"byteStride":24,"target":34962},{"buffer":0,"byteLength":524256,"byteOffset":43561188,"byteStride":8,"target":34962},{"buffer":0,"byteLength":1572768,"byteOffset":44085444,"byteStride":24,"target":34962},{"buffer":0,"byteLength":524256,"byteOffset":45658212,"byteStride":8,"target":34962},{"buffer":0,"byteLength":1114992,"byteOffset":46182468,"byteStride":24,"target":34962},{"buffer":0,"byteLength":371664,"byteOffset":47297460,"byteStride":8,"target":34962},{"buffer":0,"byteLength":209472,"byteOffset":47669124,"byteStride":24,"target":34962},{"buffer":0,"byteLength":69824,"byteOffset":47878596,"byteStride":8,"target":34962}],"accessors":[{"bufferView":19,"componentType":5126,"count":65532,"type":"VEC3","max":[14.9305058,7.93462563,22.4112053],"min":[-14.5703506,-12.4144249,0.0008983612]},{"bufferView":19,"componentType":5126,"count":65532,"type":"VEC3","byteOffset":12},{"bufferView":20,"componentType":5126,"count":65532,"type":"VEC2"},{"bufferView":0,"componentType":5125,"count":144027,"type":"SCALAR"},{"bufferView":21,"componentType":5126,"count":65532,"type":"VEC3","max":[7.796483,7.46569633,20.2261238],"min":[-8.61797,-8.225435,0.467161179]},{"bufferView":21,"componentType":5126,"count":65532,"type":"VEC3","byteOffset":12},{"bufferView":22,"componentType":5126,"count":65532,"type":"VEC2"},{"bufferView":1,"componentType":5125,"count":160110,"type":"SCALAR"},{"bufferView":23,"componentType":5126,"count":65532,"type":"VEC3","max":[7.9028,7.89166451,18.7924156],"min":[-8.663208,-2.151947,0.541873932]},{"bufferView":23,"componentType":5126,"count":65532,"type":"VEC3","byteOffset":12},{"bufferView":24,"componentType":5126,"count":65532,"type":"VEC2"},{"bufferView":2,"componentType":5125,"count":153111,"type":"SCALAR"},{"bufferView":25,"componentType":5126,"count":65533,"type":"VEC3","max":[8.869341,6.267108,21.34201],"min":[-7.252096,-8.660865,16.3345261]},{"bufferView":25,"componentType":5126,"count":65533,"type":"VEC3","byteOffset":12},{"bufferView":26,"componentType":5126,"count":65533,"type":"VEC2"},{"bufferView":3,"componentType":5125,"count":135402,"type":"SCALAR"},{"bufferView":27,"componentType":5126,"count":65532,"type":"VEC3","max":[-0.100301981,-0.105395317,21.33532],"min":[-7.331436,-8.677367,12.2044449]},{"bufferView":27,"componentType":5126,"count":65532,"type":"VEC3","byteOffset":12},{"bufferView":28,"componentType":5126,"count":65532,"type":"VEC2"},{"bufferView":4,"componentType":5125,"count":136812,"type":"SCALAR"},{"bufferView":29,"componentType":5126,"count":65532,"type":"VEC3","max":[14.86551,4.901305,17.2192039],"min":[-7.409791,-8.973063,0.13206768]},{"bufferView":29,"componentType":5126,"count":65532,"type":"VEC3","byteOffset":12},{"bufferView":30,"componentType":5126,"count":65532,"type":"VEC2"},{"bufferView":5,"componentType":5125,"count":162138,"type":"SCALAR"},{"bufferView":31,"componentType":5126,"count":65532,"type":"VEC3","max":[14.8668184,-0.53989315,9.04217148],"min":[1.32586193,-9.211084,0.16624403]},{"bufferView":31,"componentType":5126,"count":65532,"type":"VEC3","byteOffset":12},{"bufferView":32,"componentType":5126,"count":65532,"type":"VEC2"},{"bufferView":6,"componentType":5125,"count":147045,"type":"SCALAR"},{"bufferView":33,"componentType":5126,"count":65533,"type":"VEC3","max":[12.0191708,7.48471737,6.677373],"min":[-13.7746716,-12.2672758,0.186393023]},{"bufferView":33,"componentType":5126,"count":65533,"type":"VEC3","byteOffset":12},{"bufferView":34,"componentType":5126,"count":65533,"type":"VEC2"},{"bufferView":7,"componentType":5125,"count":152361,"type":"SCALAR"},{"bufferView":35,"componentType":5126,"count":65533,"type":"VEC3","max":[6.374454,-8.673956,1.837042],"min":[-9.347591,-12.3558121,0.217471957]},{"bufferView":35,"componentType":5126,"count":65533,"type":"VEC3","byteOffset":12},{"bufferView":36,"componentType":5126,"count":65533,"type":"VEC2"},{"bufferView":8,"componentType":5125,"count":118509,"type":"SCALAR"},{"bufferView":37,"componentType":5126,"count":65532,"type":"VEC3","max":[6.387147,5.142994,12.8869877],"min":[-14.57035,-12.2794647,0.259197235]},{"bufferView":37,"componentType":5126,"count":65532,"type":"VEC3","byteOffset":12},{"bufferView":38,"componentType":5126,"count":65532,"type":"VEC2"},{"bufferView":9,"componentType":5125,"count":150504,"type":"SCALAR"},{"bufferView":39,"componentType":5126,"count":65534,"type":"VEC3","max":[11.3357668,6.0625515,22.1033325],"min":[-13.63565,-8.989141,0.7708807]},{"bufferView":39,"componentType":5126,"count":65534,"type":"VEC3","byteOffset":12},{"bufferView":40,"componentType":5126,"count":65534,"type":"VEC2"},{"bufferView":10,"componentType":5125,"count":153165,"type":"SCALAR"},{"bufferView":41,"componentType":5126,"count":65533,"type":"VEC3","max":[11.3640823,6.06401157,20.0903854],"min":[-13.6117134,-8.990987,0.7708807]},{"bufferView":41,"componentType":5126,"count":65533,"type":"VEC3","byteOffset":12},{"bufferView":42,"componentType":5126,"count":65533,"type":"VEC2"},{"bufferView":11,"componentType":5125,"count":151488,"type":"SCALAR"},{"bufferView":43,"componentType":5126,"count":65532,"type":"VEC3","max":[14.9267473,7.47085571,21.05431],"min":[5.28957844,-8.56222,-0.0245599747]},{"bufferView":43,"componentType":5126,"count":65532,"type":"VEC3","byteOffset":12},{"bufferView":44,"componentType":5126,"count":65532,"type":"VEC2"},{"bufferView":12,"componentType":5125,"count":160008,"type":"SCALAR"},{"bufferView":45,"componentType":5126,"count":65532,"type":"VEC3","max":[14.8978443,7.186941,21.0951653],"min":[-7.338602,-2.169419,0.06730747]},{"bufferView":45,"componentType":5126,"count":65532,"type":"VEC3","byteOffset":12},{"bufferView":46,"componentType":5126,"count":65532,"type":"VEC2"},{"bufferView":13,"componentType":5125,"count":139884,"type":"SCALAR"},{"bufferView":47,"componentType":5126,"count":65532,"type":"VEC3","max":[6.656112,7.93405437,19.02619],"min":[-14.4378242,-8.510495,1.47704315]},{"bufferView":47,"componentType":5126,"count":65532,"type":"VEC3","byteOffset":12},{"bufferView":48,"componentType":5126,"count":65532,"type":"VEC2"},{"bufferView":14,"componentType":5125,"count":151305,"type":"SCALAR"},{"bufferView":49,"componentType":5126,"count":65532,"type":"VEC3","max":[14.9299717,7.79472065,20.9197121],"min":[-4.371771,-7.534919,0.042429924]},{"bufferView":49,"componentType":5126,"count":65532,"type":"VEC3","byteOffset":12},{"bufferView":50,"componentType":5126,"count":65532,"type":"VEC2"},{"bufferView":15,"componentType":5125,"count":155079,"type":"SCALAR"},{"bufferView":51,"componentType":5126,"count":65532,"type":"VEC3","max":[5.737962,7.24991846,12.7723408],"min":[-12.8468847,-7.582729,1.20346212]},{"bufferView":51,"componentType":5126,"count":65532,"type":"VEC3","byteOffset":12},{"bufferView":52,"componentType":5126,"count":65532,"type":"VEC2"},{"bufferView":16,"componentType":5125,"count":156960,"type":"SCALAR"},{"bufferView":53,"componentType":5126,"count":46458,"type":"VEC3","max":[-0.655117035,2.65711975,6.79038],"min":[-12.8582335,-9.000292,0.641736031]},{"bufferView":53,"componentType":5126,"count":46458,"type":"VEC3","byteOffset":12},{"bufferView":54,"componentType":5126,"count":46458,"type":"VEC2"},{"bufferView":17,"componentType":5125,"count":93780,"type":"SCALAR"},{"bufferView":55,"componentType":5126,"count":8728,"type":"VEC3","max":[14.930501,7.93462658,2.703473],"min":[-14.5740881,-12.4194365,-0.493016958]},{"bufferView":55,"componentType":5126,"count":8728,"type":"VEC3","byteOffset":12},{"bufferView":56,"componentType":5126,"count":8728,"type":"VEC2"},{"bufferView":18,"componentType":5125,"count":11529,"type":"SCALAR"}],"images":[{"name":"Schwarzmann_O.001_baseColor.png","uri":"Schwarzmann_O.001_baseColor.png","mimeType":"image/png"}],"materials":[{"name":"Schwarzmann_O.001","pbrMetallicRoughness":{"metallicFactor":0,"baseColorTexture":{"index":0}},"doubleSided":true},{"name":"bottom","pbrMetallicRoughness":{"baseColorFactor":[0.0267913155,0.0267913155,0.0267913155,1],"metallicFactor":0},"doubleSided":true}],"meshes":[{"name":"Object_0","primitives":[{"attributes":{"POSITION":0,"NORMAL":1,"TEXCOORD_0":2},"indices":3,"material":0}]},{"name":"Object_1","primitives":[{"attributes":{"POSITION":4,"NORMAL":5,"TEXCOORD_0":6},"indices":7,"material":0}]},{"name":"Object_2","primitives":[{"attributes":{"POSITION":8,"NORMAL":9,"TEXCOORD_0":10},"indices":11,"material":0}]},{"name":"Object_3","primitives":[{"attributes":{"POSITION":12,"NORMAL":13,"TEXCOORD_0":14},"indices":15,"material":0}]},{"name":"Object_4","primitives":[{"attributes":{"POSITION":16,"NORMAL":17,"TEXCOORD_0":18},"indices":19,"material":0}]},{"name":"Object_5","primitives":[{"attributes":{"POSITION":20,"NORMAL":21,"TEXCOORD_0":22},"indices":23,"material":0}]},{"name":"Object_6","primitives":[{"attributes":{"POSITION":24,"NORMAL":25,"TEXCOORD_0":26},"indices":27,"material":0}]},{"name":"Object_7","primitives":[{"attributes":{"POSITION":28,"NORMAL":29,"TEXCOORD_0":30},"indices":31,"material":0}]},{"name":"Object_8","primitives":[{"attributes":{"POSITION":32,"NORMAL":33,"TEXCOORD_0":34},"indices":35,"material":0}]},{"name":"Object_9","primitives":[{"attributes":{"POSITION":36,"NORMAL":37,"TEXCOORD_0":38},"indices":39,"material":0}]},{"name":"Object_10","primitives":[{"attributes":{"POSITION":40,"NORMAL":41,"TEXCOORD_0":42},"indices":43,"material":0}]},{"name":"Object_11","primitives":[{"attributes":{"POSITION":44,"NORMAL":45,"TEXCOORD_0":46},"indices":47,"material":0}]},{"name":"Object_12","primitives":[{"attributes":{"POSITION":48,"NORMAL":49,"TEXCOORD_0":50},"indices":51,"material":0}]},{"name":"Object_13","primitives":[{"attributes":{"POSITION":52,"NORMAL":53,"TEXCOORD_0":54},"indices":55,"material":0}]},{"name":"Object_14","primitives":[{"attributes":{"POSITION":56,"NORMAL":57,"TEXCOORD_0":58},"indices":59,"material":0}]},{"name":"Object_15","primitives":[{"attributes":{"POSITION":60,"NORMAL":61,"TEXCOORD_0":62},"indices":63,"material":0}]},{"name":"Object_16","primitives":[{"attributes":{"POSITION":64,"NORMAL":65,"TEXCOORD_0":66},"indices":67,"material":0}]},{"name":"Object_17","primitives":[{"attributes":{"POSITION":68,"NORMAL":69,"TEXCOORD_0":70},"indices":71,"material":0}]},{"name":"Object_18","primitives":[{"attributes":{"POSITION":72,"NORMAL":73,"TEXCOORD_0":74},"indices":75,"material":1}]}],"samplers":[{"minFilter":9987}],"scene":0,"scenes":[{"name":"scene","nodes":[20]}],"textures":[{"source":0,"sampler":0}]}