{"asset":{"version":"2.0","generator":"Unity 2022.3.20f1 glTFast 6.8.0"},"nodes":[{"name":"RoomTest_03","mesh":0,"translation":[0,0,-2]},{"name":"RoomTest_WindowGlass_03","mesh":1,"translation":[3.91421986,2.31100035,-5.47404957]},{"name":"LP_LabTable_02","mesh":2,"translation":[0,0,4.019]},{"name":"LP_TableAndCabinets_Altered_01 (3)","mesh":3,"translation":[5.800878,0,0]},{"name":"LP_TableAndCabinets_Altered_01 (4)","mesh":3,"translation":[2.900439,0,0]},{"name":"LP_TableAndCabinets_Altered_01 (5)","children":[3,4],"mesh":3,"translation":[7.253096,0,3.3],"rotation":[0,-0.7071068,0,-0.7071068],"scale":[1,1,-1]},{"name":"LP_TableAndCabinets_Altered_01","mesh":3,"translation":[5.800878,0,0]},{"name":"LP_TableAndCabinets_Altered_01 (1)","mesh":3,"translation":[2.900439,0,0]},{"name":"LP_TableAndCabinets_Altered_01 (2)","children":[6,7],"mesh":3,"translation":[-7.286647,0,3.3],"rotation":[0,-0.7071068,0,-0.7071068]},{"name":"pasted__pCube58","mesh":4,"translation":[-5.42101074E-22,0,0]},{"name":"LP_SmartScreen_01","children":[9],"translation":[0,1.522,6]},{"name":"LP_GasAndSinkTable_02 (1)","mesh":5,"translation":[2.90043855,0,0],"scale":[-1,1,1]},{"name":"LP_GasAndSinkTable_02 (2)","mesh":5,"translation":[5.800877,0,0]},{"name":"LP_GasAndSinkTable_02 (3)","mesh":5,"translation":[8.701316,0,0],"scale":[-1,1,1]},{"name":"LP_GasAndSinkTable_02","children":[11,12,13],"mesh":5,"translation":[-4.336316,0,-4.999]},{"name":"LP_LabTable_01 (1)","mesh":6,"translation":[0.0230000019,0,0.687000036],"rotation":[0,-1,0,0]},{"name":"LP_LabTable_01 (2)","mesh":6,"translation":[-1.106,0,0.311999947],"rotation":[0,-0.7071068,0,-0.7071068]},{"name":"LP_GasAndSinkTable_01","children":[15,16],"mesh":7,"translation":[3.5,0,-1.76],"rotation":[0,1,0,0]},{"name":"LP_LabTable_01 (1)","mesh":6,"translation":[0.0230000019,0,0.687000036],"rotation":[0,-1,0,0]},{"name":"LP_LabTable_01 (2)","mesh":6,"translation":[-1.106,0,0.311999947],"rotation":[0,-0.7071068,0,-0.7071068]},{"name":"LP_GasAndSinkTable_01 (4)","children":[18,19],"mesh":7,"translation":[3.5,0,1.8],"rotation":[0,1,0,0]},{"name":"LP_LabTable_01 (1)","mesh":6,"translation":[0.0230000019,0,0.687000036],"rotation":[0,-1,0,0]},{"name":"LP_LabTable_01 (2)","mesh":6,"translation":[-1.106,0,0.311999947],"rotation":[0,-0.7071068,0,-0.7071068]},{"name":"LP_GasAndSinkTable_01 (3)","children":[21,22],"mesh":7,"translation":[-3.5,0,1.8],"rotation":[0,1,0,0],"scale":[-1,1,1]},{"name":"LP_LabTable_01 (1)","mesh":6,"translation":[0.0230000019,0,0.687000036],"rotation":[0,-1,0,0]},{"name":"LP_LabTable_01 (2)","mesh":6,"translation":[-1.106,0,0.311999947],"rotation":[0,-0.7071068,0,-0.7071068]},{"name":"LP_GasAndSinkTable_01 (1)","children":[24,25],"mesh":7,"translation":[-3.5,0,-1.76],"rotation":[0,1,0,0],"scale":[-1,1,1]},{"name":"LP_LabTable_01 (1)","mesh":6,"translation":[0,0,0.687000036],"rotation":[0,-1,0,0]},{"name":"LP_LabTable_01 (2)","mesh":6,"translation":[-1.12500012,0,0.311999947],"rotation":[0,-0.7071068,0,-0.7071068]},{"name":"LP_LabTable_01 (3)","mesh":6,"translation":[1.125,0,0.3119997],"rotation":[0,-0.7071068,0,-0.7071068]},{"name":"LP_GasAndSinkTable_01 (2)","children":[27,28,29],"mesh":7,"translation":[0,0,-1.76],"rotation":[0,1,0,0],"scale":[-1,1,1]},{"name":"LP_LabTable_01 (1)","mesh":6,"translation":[0,0,0.687000036],"rotation":[0,-1,0,0]},{"name":"LP_LabTable_01 (2)","mesh":6,"translation":[-1.12500012,0,0.311999947],"rotation":[0,-0.7071068,0,-0.7071068]},{"name":"LP_LabTable_01 (3)","mesh":6,"translation":[1.125,0,0.3119997],"rotation":[0,-0.7071068,0,0.7071068]},{"name":"LP_GasAndSinkTable_01 (5)","children":[31,32,33],"mesh":7,"translation":[0,0,1.8],"rotation":[0,1,0,0],"scale":[-1,1,1]},{"name":"Cube","mesh":8,"translation":[0,2.75,0.38],"scale":[14.778,0.0657884851,11.860487]},{"name":"Cube (1)","mesh":8,"translation":[7.32,0.88,0.38],"rotation":[0,0,-0.7071068,0.7071068],"scale":[3.76174,0.0657884851,11.860487]},{"name":"Cube (2)","mesh":8,"translation":[-7.34,0.88,0.38],"rotation":[0,0,-0.7071068,0.7071068],"scale":[3.76174,0.0657884851,11.860487]},{"name":"RoomTest_01","children":[0,1,2,5,8,10,14,17,20,23,26,30,34,35,36,37]}],"buffers":[{"uri":"LabEnvironment.bin","byteLength":3294568}],"bufferViews":[{"buffer":0,"byteLength":82200,"target":34963},{"buffer":0,"byteLength":48,"byteOffset":82200,"target":34963},{"buffer":0,"byteLength":8160,"byteOffset":82248,"target":34963},{"buffer":0,"byteLength":50952,"byteOffset":90408,"target":34963},{"buffer":0,"byteLength":120,"byteOffset":141360,"target":34963},{"buffer":0,"byteLength":87384,"byteOffset":141480,"target":34963},{"buffer":0,"byteLength":2376,"byteOffset":228864,"target":34963},{"buffer":0,"byteLength":94776,"byteOffset":231240,"target":34963},{"buffer":0,"byteLength":72,"byteOffset":326016,"target":34963},{"buffer":0,"byteLength":768,"byteOffset":326088,"byteStride":48,"target":34962},{"buffer":0,"byteLength":69936,"byteOffset":326856,"byteStride":48,"target":34962},{"buffer":0,"byteLength":339840,"byteOffset":396792,"byteStride":48,"target":34962},{"buffer":0,"byteLength":1536,"byteOffset":736632,"byteStride":48,"target":34962},{"buffer":0,"byteLength":550032,"byteOffset":738168,"byteStride":48,"target":34962},{"buffer":0,"byteLength":23232,"byteOffset":1288200,"byteStride":48,"target":34962},{"buffer":0,"byteLength":611808,"byteOffset":1311432,"byteStride":48,"target":34962},{"buffer":0,"byteLength":1369984,"byteOffset":1923240,"byteStride":56,"target":34962},{"buffer":0,"byteLength":1344,"byteOffset":3293224,"byteStride":56,"target":34962}],"accessors":[{"bufferView":16,"componentType":5126,"count":24464,"type":"VEC3","max":[7.30271244,2.718,9.225567],"min":[-7.31164837,-0.2491076,-3.55072045]},{"bufferView":16,"componentType":5126,"count":24464,"type":"VEC3","byteOffset":12},{"bufferView":16,"componentType":5126,"count":24464,"type":"VEC4","byteOffset":24},{"bufferView":16,"componentType":5126,"count":24464,"type":"VEC2","byteOffset":40},{"bufferView":16,"componentType":5126,"count":24464,"type":"VEC2","byteOffset":48},{"bufferView":0,"componentType":5123,"count":7488,"type":"SCALAR"},{"bufferView":0,"componentType":5123,"count":36,"type":"SCALAR","byteOffset":14976},{"bufferView":0,"componentType":5123,"count":24,"type":"SCALAR","byteOffset":15048},{"bufferView":0,"componentType":5123,"count":438,"type":"SCALAR","byteOffset":15096},{"bufferView":0,"componentType":5123,"count":282,"type":"SCALAR","byteOffset":15972},{"bufferView":0,"componentType":5123,"count":2736,"type":"SCALAR","byteOffset":16536},{"bufferView":0,"componentType":5123,"count":2508,"type":"SCALAR","byteOffset":22008},{"bufferView":0,"componentType":5123,"count":2268,"type":"SCALAR","byteOffset":27024},{"bufferView":0,"componentType":5123,"count":480,"type":"SCALAR","byteOffset":31560},{"bufferView":0,"componentType":5123,"count":21876,"type":"SCALAR","byteOffset":32520},{"bufferView":0,"componentType":5123,"count":30,"type":"SCALAR","byteOffset":76272},{"bufferView":0,"componentType":5123,"count":2934,"type":"SCALAR","byteOffset":76332},{"bufferView":9,"componentType":5126,"count":16,"type":"VEC3","max":[3.17534351,0,0],"min":[-11.0212154,-1.22117555,0]},{"bufferView":9,"componentType":5126,"count":16,"type":"VEC3","byteOffset":12},{"bufferView":9,"componentType":5126,"count":16,"type":"VEC4","byteOffset":24},{"bufferView":9,"componentType":5126,"count":16,"type":"VEC2","byteOffset":40},{"bufferView":1,"componentType":5123,"count":24,"type":"SCALAR"},{"bufferView":10,"componentType":5126,"count":1457,"type":"VEC3","max":[1.47400451,0.9,0.3245294],"min":[-1.47400451,0,-0.3245294]},{"bufferView":10,"componentType":5126,"count":1457,"type":"VEC3","byteOffset":12},{"bufferView":10,"componentType":5126,"count":1457,"type":"VEC4","byteOffset":24},{"bufferView":10,"componentType":5126,"count":1457,"type":"VEC2","byteOffset":40},{"bufferView":2,"componentType":5123,"count":4080,"type":"SCALAR"},{"bufferView":11,"componentType":5126,"count":7080,"type":"VEC3","max":[1.45129144,1.84278846,0.6568884],"min":[-1.45129168,0,0]},{"bufferView":11,"componentType":5126,"count":7080,"type":"VEC3","byteOffset":12},{"bufferView":11,"componentType":5126,"count":7080,"type":"VEC4","byteOffset":24},{"bufferView":11,"componentType":5126,"count":7080,"type":"VEC2","byteOffset":40},{"bufferView":3,"componentType":5123,"count":48,"type":"SCALAR"},{"bufferView":3,"componentType":5123,"count":25428,"type":"SCALAR","byteOffset":96},{"bufferView":12,"componentType":5126,"count":32,"type":"VEC3","max":[1.4179672,0.797605038,2.8871E-07],"min":[-1.4179672,-0.797605038,-0.0292794965]},{"bufferView":12,"componentType":5126,"count":32,"type":"VEC3","byteOffset":12},{"bufferView":12,"componentType":5126,"count":32,"type":"VEC4","byteOffset":24},{"bufferView":12,"componentType":5126,"count":32,"type":"VEC2","byteOffset":40},{"bufferView":4,"componentType":5123,"count":54,"type":"SCALAR"},{"bufferView":4,"componentType":5123,"count":6,"type":"SCALAR","byteOffset":108},{"bufferView":13,"componentType":5126,"count":11459,"type":"VEC3","max":[1.45021927,1.25642908,0.321502984],"min":[-1.45021927,0,-0.321502984]},{"bufferView":13,"componentType":5126,"count":11459,"type":"VEC3","byteOffset":12},{"bufferView":13,"componentType":5126,"count":11459,"type":"VEC4","byteOffset":24},{"bufferView":13,"componentType":5126,"count":11459,"type":"VEC2","byteOffset":40},{"bufferView":5,"componentType":5123,"count":43692,"type":"SCALAR"},{"bufferView":14,"componentType":5126,"count":484,"type":"VEC3","max":[0.75,0.861143768,0.375],"min":[-0.75,0,-0.375]},{"bufferView":14,"componentType":5126,"count":484,"type":"VEC3","byteOffset":12},{"bufferView":14,"componentType":5126,"count":484,"type":"VEC4","byteOffset":24},{"bufferView":14,"componentType":5126,"count":484,"type":"VEC2","byteOffset":40},{"bufferView":6,"componentType":5123,"count":1188,"type":"SCALAR"},{"bufferView":15,"componentType":5126,"count":12746,"type":"VEC3","max":[0.75,1.38598132,0.325000018],"min":[-0.75,0,-0.324999958]},{"bufferView":15,"componentType":5126,"count":12746,"type":"VEC3","byteOffset":12},{"bufferView":15,"componentType":5126,"count":12746,"type":"VEC4","byteOffset":24},{"bufferView":15,"componentType":5126,"count":12746,"type":"VEC2","byteOffset":40},{"bufferView":7,"componentType":5123,"count":47388,"type":"SCALAR"},{"bufferView":17,"componentType":5126,"count":24,"type":"VEC3","max":[0.5,0.5,0.5],"min":[-0.5,-0.5,-0.5]},{"bufferView":17,"componentType":5126,"count":24,"type":"VEC3","byteOffset":12},{"bufferView":17,"componentType":5126,"count":24,"type":"VEC4","byteOffset":24},{"bufferView":17,"componentType":5126,"count":24,"type":"VEC2","byteOffset":40},{"bufferView":17,"componentType":5126,"count":24,"type":"VEC2","byteOffset":48},{"bufferView":8,"componentType":5123,"count":36,"type":"SCALAR"}],"materials":[{"name":"MI_WindowPlastic_01","pbrMetallicRoughness":{"metallicFactor":0}},{"name":"standardSurface1","pbrMetallicRoughness":{"metallicFactor":0},"alphaMode":"BLEND"},{"name":"Glass_01","pbrMetallicRoughness":{"baseColorFactor":[0.03171995,0.163788781,0.214041144,0.141025662],"metallicFactor":0,"roughnessFactor":-0.7320508},"alphaMode":"BLEND"},{"name":"MI_Walls_01","pbrMetallicRoughness":{"metallicFactor":0}},{"name":"MI_Walls_02","pbrMetallicRoughness":{"metallicFactor":0}},{"name":"MI_Door_01","pbrMetallicRoughness":{"metallicFactor":0}},{"name":"MI_CeilingPanels_01","pbrMetallicRoughness":{"metallicFactor":0}},{"name":"MI_CeilingLight_01","pbrMetallicRoughness":{"metallicFactor":0}},{"name":"MI_Floor_01","pbrMetallicRoughness":{"metallicFactor":0}},{"name":"MI_Skirting_01","pbrMetallicRoughness":{"metallicFactor":0}},{"name":"MI_Glass_01","pbrMetallicRoughness":{"metallicFactor":0},"alphaMode":"BLEND"},{"name":"MI_Table_02","pbrMetallicRoughness":{"metallicFactor":0}},{"name":"MI_TableAndCabinets_01","pbrMetallicRoughness":{"metallicFactor":0}},{"name":"MI_SmartScreen_01","pbrMetallicRoughness":{"metallicFactor":0}},{"name":"MI_ScreenGlass_01","pbrMetallicRoughness":{"metallicFactor":0}},{"name":"MI_GasAndSinkTable_02","pbrMetallicRoughness":{"metallicFactor":0}},{"name":"MI_Table_01","pbrMetallicRoughness":{"metallicFactor":0}},{"name":"MI_GasAndSinkTable_01","pbrMetallicRoughness":{"metallicFactor":0}},{"name":"Lit","pbrMetallicRoughness":{"baseColorFactor":[0.214041144,0.214041144,0.214041144,1],"metallicFactor":0,"roughnessFactor":0.5}}],"meshes":[{"name":"polySurface620","primitives":[{"attributes":{"POSITION":0,"NORMAL":1,"TANGENT":2,"TEXCOORD_0":3,"TEXCOORD_1":4},"indices":5,"material":0},{"attributes":{"POSITION":0,"NORMAL":1,"TANGENT":2,"TEXCOORD_0":3,"TEXCOORD_1":4},"indices":6,"material":1},{"attributes":{"POSITION":0,"NORMAL":1,"TANGENT":2,"TEXCOORD_0":3,"TEXCOORD_1":4},"indices":7,"material":2},{"attributes":{"POSITION":0,"NORMAL":1,"TANGENT":2,"TEXCOORD_0":3,"TEXCOORD_1":4},"indices":8,"material":3},{"attributes":{"POSITION":0,"NORMAL":1,"TANGENT":2,"TEXCOORD_0":3,"TEXCOORD_1":4},"indices":9,"material":4},{"attributes":{"POSITION":0,"NORMAL":1,"TANGENT":2,"TEXCOORD_0":3,"TEXCOORD_1":4},"indices":10,"material":0},{"attributes":{"POSITION":0,"NORMAL":1,"TANGENT":2,"TEXCOORD_0":3,"TEXCOORD_1":4},"indices":11,"material":5},{"attributes":{"POSITION":0,"NORMAL":1,"TANGENT":2,"TEXCOORD_0":3,"TEXCOORD_1":4},"indices":12,"material":6},{"attributes":{"POSITION":0,"NORMAL":1,"TANGENT":2,"TEXCOORD_0":3,"TEXCOORD_1":4},"indices":13,"material":7},{"attributes":{"POSITION":0,"NORMAL":1,"TANGENT":2,"TEXCOORD_0":3,"TEXCOORD_1":4},"indices":14,"material":0},{"attributes":{"POSITION":0,"NORMAL":1,"TANGENT":2,"TEXCOORD_0":3,"TEXCOORD_1":4},"indices":15,"material":8},{"attributes":{"POSITION":0,"NORMAL":1,"TANGENT":2,"TEXCOORD_0":3,"TEXCOORD_1":4},"indices":16,"material":9}]},{"name":"polySurface578","primitives":[{"attributes":{"POSITION":17,"NORMAL":18,"TANGENT":19,"TEXCOORD_0":20},"indices":21,"material":10}]},{"name":"polySurface258","primitives":[{"attributes":{"POSITION":22,"NORMAL":23,"TANGENT":24,"TEXCOORD_0":25},"indices":26,"material":11}]},{"name":"dgr6","primitives":[{"attributes":{"POSITION":27,"NORMAL":28,"TANGENT":29,"TEXCOORD_0":30},"indices":31,"material":10},{"attributes":{"POSITION":27,"NORMAL":28,"TANGENT":29,"TEXCOORD_0":30},"indices":32,"material":12}]},{"name":"pasted__pCube58","primitives":[{"attributes":{"POSITION":33,"NORMAL":34,"TANGENT":35,"TEXCOORD_0":36},"indices":37,"material":13},{"attributes":{"POSITION":33,"NORMAL":34,"TANGENT":35,"TEXCOORD_0":36},"indices":38,"material":14}]},{"name":"polySurface381","primitives":[{"attributes":{"POSITION":39,"NORMAL":40,"TANGENT":41,"TEXCOORD_0":42},"indices":43,"material":15}]},{"name":"pCube32","primitives":[{"attributes":{"POSITION":44,"NORMAL":45,"TANGENT":46,"TEXCOORD_0":47},"indices":48,"material":16}]},{"name":"polySurface91","primitives":[{"attributes":{"POSITION":49,"NORMAL":50,"TANGENT":51,"TEXCOORD_0":52},"indices":53,"material":17}]},{"name":"Cube","primitives":[{"attributes":{"POSITION":54,"NORMAL":55,"TANGENT":56,"TEXCOORD_0":57,"TEXCOORD_1":58},"indices":59,"material":18}]}],"scene":0,"scenes":[{"name":"RoomTest_01","nodes":[38]}]}